<?xml version="1.0" encoding="UTF-8" standalone="no"?>
<svg
   xmlns:dc="http://purl.org/dc/elements/1.1/"
   xmlns:cc="http://creativecommons.org/ns#"
   xmlns:rdf="http://www.w3.org/1999/02/22-rdf-syntax-ns#"
   xmlns:svg="http://www.w3.org/2000/svg"
   xmlns="http://www.w3.org/2000/svg"
   xmlns:sodipodi="http://sodipodi.sourceforge.net/DTD/sodipodi-0.dtd"
   xmlns:inkscape="http://www.inkscape.org/namespaces/inkscape"
   width="500"
   height="500"
   viewBox="0 0 132.29166 132.29167"
   version="1.1"
   id="svg8"
   inkscape:version="1.0.2 (1.0.2+r75+1)"
   sodipodi:docname="favicon.svg"
   inkscape:export-filename="/home/antunes/Development/git-personal/willianantunes.com/docs/favicon.png"
   inkscape:export-xdpi="9.2159996"
   inkscape:export-ydpi="9.2159996">
  <defs
     id="defs2">
    <style
       id="style76">
      @font-face {
        font-family: &quot;Virgil&quot;;
        src: url(&quot;https://excalidraw.com/Virgil.woff2&quot;);
      }
      @font-face {
        font-family: &quot;Cascadia&quot;;
        src: url(&quot;https://excalidraw.com/Cascadia.woff2&quot;);
      }
    </style>
  </defs>
  <sodipodi:namedview
     id="base"
     pagecolor="#ffffff"
     bordercolor="#666666"
     borderopacity="1.0"
     inkscape:pageopacity="0.0"
     inkscape:pageshadow="2"
     inkscape:zoom="0.98994949"
     inkscape:cx="176.67386"
     inkscape:cy="225.18713"
     inkscape:document-units="mm"
     inkscape:current-layer="layer1"
     inkscape:document-rotation="0"
     showgrid="false"
     units="px"
     inkscape:window-width="1848"
     inkscape:window-height="920"
     inkscape:window-x="72"
     inkscape:window-y="27"
     inkscape:window-maximized="1" />
  <metadata
     id="metadata5">
    <rdf:RDF>
      <cc:Work
         rdf:about="">
        <dc:format>image/svg+xml</dc:format>
        <dc:type
           rdf:resource="http://purl.org/dc/dcmitype/StillImage" />
        <dc:title></dc:title>
      </cc:Work>
    </rdf:RDF>
  </metadata>
  <g
     inkscape:label="Layer 1"
     inkscape:groupmode="layer"
     id="layer1">
    <g
       id="g117"
       transform="matrix(1.4153253,0,0,1.4153253,-9.3935989,3.838463)">
      <g
         id="g84">
        <g
           transform="translate(63.880884,42.391596)"
           id="g82">
          <path
             d="M 0.97156565,0.04556457 C -2.1555349,0.07448125 -10.305007,0.07623124 -18.95243,0.23661395 -27.599854,0.39699666 -45.413519,-1.2798223 -50.912975,1.0078608 c -5.499455,2.2876831 -1.825793,9.7355782 -1.036188,12.9548522 0.789605,3.219273 4.110443,4.868004 5.773818,6.36079 1.663375,1.492787 2.736795,2.154234 4.206431,2.595926 1.469636,0.441693 3.784382,-0.541046 4.611385,0.05423 0.827002,0.595276 -0.940968,2.472087 0.350632,3.517428 1.2916,1.04534 3.208588,2.475099 7.398969,2.754614 4.190381,0.279515 12.522189,0.141206 17.74332,-1.077525 C -6.6434779,26.949445 -0.66695117,23.170091 1.7188539,21.933312 4.104659,20.696534 1.6930325,21.180334 2.4502222,20.747504 3.2074118,20.314674 5.7830853,20.572237 6.2619917,19.336333 6.740898,18.100429 6.3915928,15.277967 5.3236601,13.332082 4.2557274,11.386197 3.0857647,8.4278393 -0.14560452,7.6610223 -3.3769737,6.8942054 -10.909274,8.271407 -14.064555,8.7311801 c -3.155281,0.4597731 -4.20002,1.6669609 -5.012735,1.6884809 M 0.02249889,-0.97611797 C -3.1543508,-0.8151543 -11.263754,1.3448174 -19.350502,1.3732495 c -8.086747,0.028432 -23.759974,-3.9352302 -29.147482,-2.17877488 -5.387509,1.75645534 -3.391666,9.10257228 -3.177566,12.71750738 0.214099,3.614934 2.693788,6.795404 4.46216,8.9721 1.768371,2.176697 4.342047,3.44392 6.148066,4.08808 1.80602,0.644159 4.183212,-0.462424 4.68805,-0.223123 0.504838,0.2393 -3.065403,1.118558 -1.659022,1.658928 1.406382,0.540369 6.118029,1.438098 10.097312,1.583289 3.979283,0.145192 8.719131,0.226679 13.778387,-0.712142 5.0592566,-0.93882 14.00471106,-3.73943 16.5771494,-4.920779 C 4.9889908,21.176985 0.57199009,20.280171 1.2740336,20.191016 1.9760772,20.101861 6.13044,22.969464 6.6288137,21.823405 7.1271874,20.677346 5.4388052,15.797664 4.2642758,13.314662 3.0897465,10.83166 2.5571653,8.0267252 -0.4183624,6.9253942 -3.3938901,5.8240632 -10.785821,5.9628047 -13.58889,6.706676 c -2.80307,0.7438713 -3.069367,4.36151 -3.647888,4.681946"
             stroke="#000000"
             stroke-width="1"
             fill="none"
             id="path80" />
        </g>
      </g>
      <g
         transform="translate(74.880869,26.391611)"
         id="g88">
        <path
           d="M 2.1041466,0.97781122 C 2.9135252,0.61750663 4.3448338,0.52491369 4.8001258,0.51931815 5.2554179,0.5137226 4.5572078,0.47096651 4.8358989,0.94423795 5.1145901,1.4175094 6.4698334,2.4065231 6.4722726,3.3589468 6.4747118,4.3113705 5.5291666,6.0180935 4.850534,6.6587802 4.1719014,7.299467 2.8843057,7.4100316 2.4004772,7.2030671 1.9166487,6.9961026 2.2426566,6.0988732 1.9475631,5.4169934 1.6524696,4.7351135 0.81703661,3.7735329 0.62991619,3.1117882 0.44279577,2.4500434 0.43504935,2.0553084 0.82484054,1.4465246 1.2146317,0.83774089 2.6261458,-0.36415531 2.9686633,-0.54091427 3.3111808,-0.71767324 3.071284,0.28274829 2.8799456,0.38597084 M 2.2371208,-0.8373304 C 2.38248,-0.77412367 1.6231228,0.99093503 2.3308855,1.2220668 3.0386481,1.4531986 6.0526791,0.2142913 6.4836966,0.54946042 6.914714,0.88462954 5.1373678,2.3099083 4.9169899,3.2330816 4.6966121,4.1562548 5.5791448,5.514085 5.1614294,6.0884998 4.7437139,6.6629147 2.9261129,6.7258686 2.410697,6.6795705 1.8952811,6.6332723 2.2075002,6.0460599 2.0689342,5.8107108 1.9303682,5.5753616 1.8035333,6.1192316 1.5793011,5.2674754 1.3550689,4.4157192 0.72075764,1.6260368 0.7235411,0.70017369 0.7263241,-0.22568945 1.3238048,-0.11146577 1.5960019,-0.28770344 1.868199,-0.46394112 2.4121224,-0.47947237 2.3567236,-0.35725234"
           stroke="#000000"
           stroke-width="1"
           fill="none"
           id="path86" />
      </g>
      <g
         transform="translate(49.188557,24.776206)"
         id="g92">
        <path
           d="M 2.6883377,0.93745196 C 3.1460605,0.48980935 3.8799704,-0.84117088 4.2067967,-0.6321963 4.533623,-0.42322172 4.4980975,1.4203069 4.6492955,2.1912994 4.8004935,2.962292 4.9874281,3.4251828 5.1139848,3.9937587 5.2405416,4.5623347 5.7111775,4.9443028 5.408636,5.6027554 5.1060946,6.261208 4.124943,7.7367001 3.2987361,7.9444741 2.4725292,8.1522482 1.1387806,7.4083634 0.45139452,6.8493996 -0.23599158,6.2904359 -0.77464207,5.3882285 -0.82558054,4.5906919 -0.876519,3.7931552 -0.25631131,2.8987428 0.14576373,2.0641798 0.54783876,1.2296169 1.1629385,0.06326254 1.5868697,-0.41668602 2.0108008,-0.89663458 2.6299247,-0.81747964 2.6893506,-0.81551154 m 0.03449,-0.44794606 C 3.7271634,-1.0066966 6.2500818,1.9651746 6.63815,2.655872 7.0262181,3.3465693 5.4116559,2.3061253 5.0522493,2.8807264 4.6928428,3.4553274 4.7796252,5.5628952 4.4817104,6.1034781 4.1837956,6.644061 3.8665853,5.9664203 3.2647604,6.1242239 2.6629354,6.2820274 1.4980748,7.115732 0.87076085,7.0502996 0.2434469,6.9848673 -0.54984609,6.5170342 -0.49912332,5.7316298 -0.44840055,4.9462254 1.0075502,3.2679891 1.1750974,2.3378732 1.3426447,1.4077573 0.15643171,0.41064762 0.50616005,0.15093439 0.85588839,-0.10877884 2.8373783,0.86303949 3.2734675,0.77959377 3.7095566,0.69614805 3.0681613,-0.25396651 3.1226949,-0.34973993"
           stroke="#000000"
           stroke-width="1"
           fill="none"
           id="path90" />
      </g>
      <g
         id="g98">
        <g
           transform="translate(31.111607,41.506988)"
           id="g96">
          <path
             d="M -0.76340894,-0.9129745 C 0.83287277,-3.6431916 6.2586499,-10.905398 9.6232549,-15.333733 c 3.3646051,-4.428334 3.7611791,-9.62032 9.8009661,-12.149249 6.039786,-2.52893 19.188553,-4.840114 26.437753,-3.024327 7.249201,1.815786 14.410628,6.989483 17.05745,13.919046 2.646821,6.9295624 0.305124,20.6872454 -1.176521,27.65833 -1.481644,6.971085 -1.361251,9.977798 -7.713348,14.168179 -6.352098,4.19038 -24.024904,9.727333 -30.399234,10.974104 -6.37433,1.246771 -6.499809,-2.866461 -7.846747,-3.493476 M 1.0366626,1.2221099 c 1.5224614,-2.00305937 5.1464625,-9.8892642 8.1676737,-14.9917039 3.0212117,-5.102439 3.7805317,-12.932517 9.9595937,-15.622934 6.179063,-2.690417 19.55192,-2.774954 27.114783,-0.519568 7.562862,2.255386 15.539458,7.395451 18.26239,14.051885 2.722932,6.6564348 -0.322999,18.7044683 -1.924799,25.886721 -1.601799,7.182253 -1.038865,12.799963 -7.685998,17.206797 -6.647134,4.406835 -25.93091,8.487619 -32.196802,9.23421 -6.265891,0.74659 -4.235727,-4.04913 -5.398547,-4.754668"
             stroke="#000000"
             stroke-width="1"
             fill="none"
             id="path94" />
        </g>
      </g>
    </g>
  </g>
</svg>
