<?xml version="1.0" encoding="UTF-8" standalone="no"?>
<svg
   xmlns:dc="http://purl.org/dc/elements/1.1/"
   xmlns:cc="http://creativecommons.org/ns#"
   xmlns:rdf="http://www.w3.org/1999/02/22-rdf-syntax-ns#"
   xmlns:svg="http://www.w3.org/2000/svg"
   xmlns="http://www.w3.org/2000/svg"
   xmlns:sodipodi="http://sodipodi.sourceforge.net/DTD/sodipodi-0.dtd"
   xmlns:inkscape="http://www.inkscape.org/namespaces/inkscape"
   width="1200"
   height="630"
   viewBox="0 0 317.5 166.6875"
   version="1.1"
   id="svg143"
   inkscape:version="1.0.2 (1.0.2+r75+1)"
   sodipodi:docname="og-image.svg"
   inkscape:export-filename="/home/antunes/Development/git-personal/willianantunes.com/docs/og-image.png"
   inkscape:export-xdpi="96"
   inkscape:export-ydpi="96">
  <defs
     id="defs137">
    <style
       id="style1036">
      @font-face {
        font-family: &quot;Virgil&quot;;
        src: url(&quot;https://excalidraw.com/Virgil.woff2&quot;);
      }
      @font-face {
        font-family: &quot;Cascadia&quot;;
        src: url(&quot;https://excalidraw.com/Cascadia.woff2&quot;);
      }
    </style>
  </defs>
  <sodipodi:namedview
     id="base"
     pagecolor="#ffffff"
     bordercolor="#666666"
     borderopacity="1.0"
     inkscape:pageopacity="0.0"
     inkscape:pageshadow="2"
     inkscape:zoom="0.49497475"
     inkscape:cx="481.45173"
     inkscape:cy="424.52909"
     inkscape:document-units="px"
     inkscape:current-layer="layer1"
     inkscape:document-rotation="0"
     showgrid="false"
     units="px"
     inkscape:window-width="1848"
     inkscape:window-height="920"
     inkscape:window-x="72"
     inkscape:window-y="27"
     inkscape:window-maximized="1" />
  <metadata
     id="metadata140">
    <rdf:RDF>
      <cc:Work
         rdf:about="">
        <dc:format>image/svg+xml</dc:format>
        <dc:type
           rdf:resource="http://purl.org/dc/dcmitype/StillImage" />
        <dc:title></dc:title>
      </cc:Work>
    </rdf:RDF>
  </metadata>
  <g
     inkscape:label="Layer 1"
     inkscape:groupmode="layer"
     id="layer1">
    <rect
       style="fill:#0d47a1;fill-opacity:1;fill-rule:evenodd;stroke-width:0.325785"
       id="rect145"
       width="317.5"
       height="166.6875"
       x="-4.2632564e-14"
       y="-1.0658141e-14" />
    <g
       id="g1101"
       transform="matrix(7.8847001,0,0,7.8847001,-129.45199,-127.02999)">
      <path
         d="m 35.957223,40.013132 c -1.494276,0.01382 -5.388477,0.01465 -9.520623,0.09129 -4.132146,0.07664 -12.644354,-0.724624 -15.272252,0.368538 -2.6278988,1.093163 -0.87245,4.652118 -0.49514,6.190438 0.377311,1.53832 1.964163,2.326162 2.759002,3.039485 0.794839,0.713324 1.30777,1.029395 2.010031,1.240456 0.702261,0.211061 1.808356,-0.258537 2.203537,0.02591 0.39518,0.284451 -0.449639,1.18128 0.167548,1.680793 0.617187,0.499513 1.533214,1.182719 3.535576,1.316284 2.002361,0.133566 5.983691,0.06748 8.478593,-0.514892 2.494902,-0.582367 5.350767,-2.38832 6.490817,-2.979311 1.14005,-0.590991 -0.01234,-0.359809 0.349482,-0.566635 0.361821,-0.206827 1.592599,-0.08375 1.821443,-0.674324 0.228844,-0.590573 0.06193,-1.939278 -0.448379,-2.869114 -0.510308,-0.929835 -1.069371,-2.343478 -2.613472,-2.709899 -1.5441,-0.366421 -5.143388,0.291671 -6.651129,0.511372 -1.507742,0.219701 -2.006967,0.796552 -2.395321,0.806835 m 9.126778,-5.445439 c -1.518048,0.07692 -5.393103,1.109052 -9.257331,1.122638 -3.864229,0.01359 -11.353634,-1.880438 -13.928039,-1.041121 -2.5744054,0.839317 -1.620698,4.349637 -1.518391,6.077024 0.102307,1.727385 1.287219,3.247163 2.13223,4.287291 0.845011,1.040128 2.074835,1.645667 2.937836,1.953477 0.863001,0.30781 1.998935,-0.220968 2.240171,-0.106618 0.241235,0.114348 -1.464794,0.534499 -0.792759,0.792713 0.672035,0.258214 2.923482,0.687191 4.824971,0.75657 1.901488,0.06938 4.166411,0.108318 6.583961,-0.340295 2.417551,-0.448612 6.69211,-1.786875 7.921342,-2.351379 1.229233,-0.564505 -0.881418,-0.993045 -0.545949,-1.035647 0.33547,-0.0426 2.32062,1.327673 2.558766,0.780032 0.238147,-0.547641 -0.568642,-2.879383 -1.129887,-4.065878 -0.561246,-1.186495 -0.815738,-2.526825 -2.237585,-3.053093 -1.421847,-0.526268 -4.95406,-0.45997 -6.293498,-0.104514 -1.339439,0.355457 -1.466688,2.084135 -1.743133,2.237255"
         stroke="#000000"
         stroke-width="0.477847"
         fill="none"
         id="path1040"
         style="stroke:#ffffff" />
      <path
         d="m 41.754734,32.813057 c 0.386759,-0.17217 1.070706,-0.216416 1.288266,-0.219089 0.21756,-0.0027 -0.116078,-0.0231 0.01709,0.203046 0.133172,0.226152 0.780771,0.698749 0.781936,1.153862 0.0012,0.455113 -0.45066,1.270665 -0.774943,1.576816 -0.324282,0.30615 -0.939556,0.358983 -1.170752,0.260085 -0.231196,-0.0989 -0.07541,-0.527635 -0.216424,-0.85347 -0.141009,-0.325834 -0.540218,-0.785322 -0.629633,-1.101535 -0.08941,-0.316213 -0.09312,-0.504836 0.09314,-0.795741 0.18626,-0.290906 0.860748,-0.865229 1.024419,-0.949692 0.163671,-0.08446 0.04904,0.393584 -0.04239,0.442909 m -0.307172,-0.584551 c 0.06946,0.0302 -0.293398,0.873631 0.04481,0.984077 0.338202,0.110446 1.778448,-0.481563 1.984408,-0.321403 0.205961,0.16016 -0.643339,0.841225 -0.748646,1.282361 -0.105307,0.441135 0.316409,1.08997 0.116805,1.364453 -0.199604,0.274482 -1.06814,0.304565 -1.31443,0.282441 -0.246289,-0.02212 -0.0971,-0.302721 -0.16331,-0.415182 -0.06621,-0.112461 -0.126821,0.147426 -0.23397,-0.259583 -0.107148,-0.40701 -0.410252,-1.740051 -0.408922,-2.182472 0.0013,-0.442421 0.286834,-0.38784 0.416903,-0.472054 0.130068,-0.08422 0.389981,-0.09164 0.363508,-0.03323"
         stroke="#000000"
         stroke-width="0.477847"
         fill="none"
         id="path1046"
         style="stroke:#ffffff" />
      <path
         d="m 29.756892,32.021855 c 0.218722,-0.213905 0.569418,-0.84991 0.725591,-0.750052 0.156173,0.09986 0.139198,0.980782 0.211447,1.349199 0.07225,0.368417 0.161576,0.589608 0.222051,0.8613 0.06047,0.271692 0.285366,0.454215 0.140798,0.768854 -0.144569,0.31464 -0.613409,1.019699 -1.00821,1.118984 -0.3948,0.09928 -1.032128,-0.256179 -1.360593,-0.523279 -0.328466,-0.267099 -0.585858,-0.698216 -0.610199,-1.079316 -0.02434,-0.381101 0.272023,-0.808493 0.464154,-1.207287 0.19213,-0.398793 0.486054,-0.956132 0.688628,-1.185474 0.202574,-0.229342 0.498421,-0.191518 0.526817,-0.190578 m 0.01648,-0.214049 c 0.479435,0.122692 1.685004,1.542792 1.870441,1.87284 0.185438,0.330047 -0.586076,-0.167126 -0.757818,0.107446 -0.171741,0.274571 -0.130272,1.281666 -0.27263,1.539982 -0.142358,0.258316 -0.293936,-0.06549 -0.581516,0.0099 -0.28758,0.07541 -0.844205,0.47379 -1.143965,0.442523 -0.299761,-0.03127 -0.678833,-0.254819 -0.654596,-0.630123 0.02424,-0.375303 0.71996,-1.177243 0.800022,-1.621696 0.08006,-0.444453 -0.486767,-0.920919 -0.31965,-1.045022 0.167117,-0.124104 1.113966,0.340277 1.32235,0.300403 0.208384,-0.03987 -0.09811,-0.493884 -0.07205,-0.539649"
         stroke="#000000"
         stroke-width="0.477847"
         fill="none"
         id="path1050"
         style="stroke:#ffffff" />
      <path
         d="m 19.469467,39.132389 c 0.762779,-1.304626 3.35547,-4.77485 4.963237,-6.890917 1.607767,-2.116067 1.797268,-4.597042 4.683363,-5.805483 2.886094,-1.208442 9.169194,-2.312834 12.633202,-1.445166 3.46401,0.867668 6.886077,3.339904 8.150853,6.651175 1.264775,3.311271 0.145802,9.88534 -0.562197,13.216452 -0.708,3.331112 -0.65047,4.767861 -3.685801,6.770223 -3.035331,2.00236 -11.48023,4.648177 -14.526185,5.243943 -3.045954,0.595766 -3.105914,-1.36973 -3.749545,-1.669347 M 20.329626,40.152633 c 0.727504,-0.957156 2.459222,-4.725556 3.902899,-7.163742 1.443677,-2.438185 1.806516,-6.179765 4.759163,-7.465373 2.952647,-1.285608 9.342827,-1.326004 12.956719,-0.248274 3.613891,1.077729 7.425484,3.533894 8.726629,6.714652 1.301145,3.180758 -0.154344,8.937875 -0.919759,12.369893 -0.765415,3.432019 -0.496419,6.116425 -3.672732,8.222218 -3.176313,2.105793 -12.391009,4.055783 -15.385147,4.41254 -2.994138,0.356756 -2.02403,-1.934865 -2.57968,-2.272004"
         stroke="#000000"
         stroke-width="0.477847"
         fill="none"
         id="path1054"
         style="stroke:#ffffff" />
    </g>
    <g
       id="g1159"
       transform="translate(4.2692898,4.7625002)">
      <text
         xml:space="preserve"
         style="font-style:normal;font-weight:normal;font-size:21.7059px;line-height:1.25;font-family:sans-serif;fill:#ffffff;fill-opacity:1;stroke:none;stroke-width:0.542647"
         x="75.267097"
         y="24.374321"
         id="text1109"><tspan
           sodipodi:role="line"
           x="75.267097"
           y="24.374321"
           style="fill:#ffffff;stroke-width:0.542647"
           id="tspan1111">Programming?</tspan></text>
      <text
         xml:space="preserve"
         style="font-style:normal;font-weight:normal;font-size:10.9123px;line-height:1.25;font-family:sans-serif;fill:#ffffff;fill-opacity:1;stroke:none;stroke-width:0.272808"
         x="7.3085194"
         y="46.352444"
         id="text1117"><tspan
           sodipodi:role="line"
           id="tspan1115"
           x="7.3085194"
           y="46.352444"
           style="font-style:normal;font-variant:normal;font-weight:normal;font-stretch:normal;font-family:serif;-inkscape-font-specification:serif;fill:#ffffff;stroke-width:0.272808">I think can give my 5 cents, or should I say Bitcoins?!</tspan></text>
    </g>
  </g>
</svg>
